HIERARCHY
ROOT ui
{
	 OFFSET 0 0 0
	 CHANNELS 3 XPosition YPosition Z Position
	 EndSite
	 {
	 OFFSET 0 -1 0
	 }
}
ROOT li
{
	 OFFSET 0 0 0
	 CHANNELS 3 XPosition YPosition Z Position
	 EndSite
	 {
	 OFFSET 0 -1 0
	 }
}
ROOT ul
{
	 OFFSET 0 0 0
	 CHANNELS 3 XPosition YPosition Z Position
	 EndSite
	 {
	 OFFSET 0 -1 0
	 }
}
ROOT ll
{
	 OFFSET 0 0 0
	 CHANNELS 3 XPosition YPosition Z Position
	 EndSite
	 {
	 OFFSET 0 -1 0
	 }
}
ROOT tt
{
	 OFFSET 0 0 0
	 CHANNELS 3 XPosition YPosition Z Position
	 EndSite
	 {
	 OFFSET 0 -1 0
	 }
}
ROOT tb
{
	 OFFSET 0 0 0
	 CHANNELS 3 XPosition YPosition Z Position
	 EndSite
	 {
	 OFFSET 0 -1 0
	 }
}
ROOT td
{
	 OFFSET 0 0 0
	 CHANNELS 3 XPosition YPosition Z Position
	 EndSite
	 {
	 OFFSET 0 -1 0
	 }
}
ROOT v
{
	 OFFSET 0 0 0
	 CHANNELS 3 XPosition YPosition Z Position
	 EndSite
	 {
	 OFFSET 0 -1 0
	 }
}
ROOT bn
{
	 OFFSET 0 0 0
	 CHANNELS 3 XPosition YPosition Z Position
	 EndSite
	 {
	 OFFSET 0 -1 0
	 }
}
MOTION
Frames: 33
Frame Time: 0.002
0.001415766954421997	-0.013710687637329102	0		0.5061653137207032	-2.5231435546875	0		-1.1491634521484375	-0.22725347900390624	0		-0.6173767700195313	-2.6101044921875	0		1.6689193115234375	-1.240658447265625	0		3.285073486328125	-0.8705752563476562	0		4.598162109375	-0.6266393432617188	0		5.90007666015625	0.34963107299804685	0		-0.21061289978027345	5.899458984375	0		
0.0028622400760650634	-0.0023285870552062988	0		0.5506323852539062	-2.518425048828125	0		-1.0979051513671876	-0.22872673034667967	0		-0.5837598876953125	-2.596265380859375	0		1.6799437255859375	-1.2593515625	0		3.289689453125	-0.851082275390625	0		4.6146201171875	-0.6162734985351562	0		5.9004765625	0.38195819091796873	0		-0.32880755615234375	5.88973974609375	0		
0.007180152893066406	-2.366200089454651E-5	0		0.5230242919921875	-2.5185830078125	0		-1.14576171875	-0.237641357421875	0		-0.615236083984375	-2.588413818359375	0		1.709013916015625	-1.2763648681640625	0		3.307342529296875	-0.8928414916992188	0		4.6297099609375	-0.62992626953125	0		5.89649365234375	0.3970811462402344	0		-0.3288128967285156	5.88909326171875	0		
0.0034211881160736085	-0.0036147589683532713	0		0.5473433837890626	-2.524596435546875	0		-1.112530517578125	-0.24287351989746095	0		-0.6019442749023437	-2.596302978515625	0		1.7162314453125	-1.2850538330078125	0		3.341682861328125	-0.8928895263671875	0		4.63107421875	-0.6273894653320312	0		5.900876953125	0.380676025390625	0		-0.32878994750976565	5.8884228515625	0		
-0.006128028869628906	0.004869502067565918	0		0.4938302307128906	-2.52038916015625	0		-1.1463363037109375	-0.25105459594726565	0		-0.6432652587890625	-2.580337890625	0		1.762936767578125	-1.327393798828125	0		3.3366953125	-0.9143353271484375	0		4.64034326171875	-0.6320036010742187	0		5.9056474609375	0.4213083190917969	0		-0.3438812561035156	5.87897412109375	0		
0.0040522518157958985	-0.004973011016845703	0		0.5300675659179688	-2.53362158203125	0		-1.1900908203125	-0.25709088134765623	0		-0.6628599853515625	-2.5827333984375	0		1.7312425537109375	-1.33249609375	0		3.348977783203125	-0.9200673217773437	0		4.65859765625	-0.6387748413085937	0		5.91372412109375	0.4202607421875	0		-0.32866726684570313	5.8870361328125	0		
0.01148807144165039	2.2613799571990966E-4	0		0.51066162109375	-2.52497412109375	0		-1.1657569580078124	-0.25921014404296877	0		-0.6532516479492188	-2.573594482421875	0		1.79328564453125	-1.3560888671875	0		3.377865478515625	-0.95206884765625	0		4.66585498046875	-0.6463761596679688	0		5.91950439453125	0.393340087890625	0		-0.1801204376220703	5.91399072265625	0		
-0.002057755947113037	0.005758860111236572	0		0.5511544189453125	-2.52427001953125	0		-1.1724815673828124	-0.26583673095703125	0		-0.66364013671875	-2.565137939453125	0		1.7934339599609375	-1.3736973876953125	0		3.385389404296875	-0.9447228393554687	0		4.68622216796875	-0.6481785278320312	0		5.91858154296875	0.43070278930664063	0		-0.31331475830078126	5.89539306640625	0		
-0.0016861350536346434	0.005079927921295166	0		0.49461141967773437	-2.526029296875	0		-1.1802071533203125	-0.27343988037109374	0		-0.61938232421875	-2.58053515625	0		1.790802978515625	-1.378250732421875	0		3.35855419921875	-0.96082861328125	0		4.6835283203125	-0.6546061401367187	0		5.910322265625	0.4354913330078125	0		-0.32835394287109376	5.8849375	0		
0.005507761001586914	-0.007692516803741455	0		0.5190235595703125	-2.532047119140625	0		-1.1798121337890626	-0.2741556701660156	0		-0.6908150634765625	-2.576098876953125	0		1.8047431640625	-1.411052001953125	0		3.390740234375	-0.976845458984375	0		4.6949384765625	-0.6552379150390625	0		5.90851171875	0.4435224914550781	0		-0.32822824096679687	5.8842587890625	0		
-0.003959026098251343	8.188890218734741E-4	0		0.5034337463378906	-2.538417724609375	0		-1.1794091796875	-0.274851318359375	0		-0.6533312377929688	-2.57835107421875	0		1.8237718505859375	-1.4389105224609375	0		3.403891357421875	-0.995541748046875	0		4.70021728515625	-0.664753173828125	0		5.9124677734375	0.46002194213867187	0		-0.19576744079589845	5.90353564453125	0		
-5.167019963264465E-4	0.0031536450386047362	0		0.5049867553710937	-2.53602978515625	0		-1.1621123046875	-0.2827845764160156	0		-0.6748671875	-2.581654296875	0		1.8260120849609376	-1.4534786376953126	0		3.402533203125	-0.9829820556640625	0		4.70957861328125	-0.6693064575195312	0		5.91115673828125	0.43350775146484377	0		-0.34687472534179686	5.888263671875	0		
-1.1897499859333038E-4	0.0025674989223480223	0		0.494586669921875	-2.53042431640625	0		-1.161702392578125	-0.28341998291015624	0		-0.6523159790039063	-2.579611328125	0		1.8572813720703125	-1.466467529296875	0		3.4243642578125	-1.0227610473632813	0		4.7230810546875	-0.6648955078125	0		5.9151064453125	0.44836386108398435	0		-0.31363726806640624	5.8931494140625	0		
2.7780801057815553E-4	0.0020186541080474854	0		0.5190053100585937	-2.536324462890625	0		-1.1643402099609375	-0.2869688415527344	0		-0.6908257446289062	-2.58058203125	0		1.855412353515625	-1.4879078369140626	0		3.45781396484375	-1.0226831665039062	0		4.720412109375	-0.67120654296875	0		5.909849609375	0.4739915161132813	0		-0.34656719970703126	5.88710009765625	0		
6.70873999595642E-4	0.0015119420289993286	0		0.4993413391113281	-2.54650146484375	0		-1.1639364013671876	-0.28751922607421876	0		-0.6496190795898438	-2.599746337890625	0		1.9072984619140625	-1.52514453125	0		3.4399384765625	-1.0427796630859374	0		4.74490478515625	-0.6669078979492188	0		5.9135966796875	0.4577987365722656	0		-0.32747430419921875	5.881287109375	0		
0.001057379961013794	0.0010516819953918456	0		0.49981442260742187	-2.546944580078125	0		-1.2256868896484374	-0.2970615234375	0		-0.6850936279296875	-2.596673583984375	0		1.877663330078125	-1.53007666015625	0		3.4403603515625	-1.043123046875	0		4.74017578125	-0.6761287841796875	0		5.91753662109375	0.4727871704101563	0		-0.360376220703125	5.87532568359375	0		
0.005495355129241943	0.004579693794250488	0		0.5043290710449219	-2.543401611328125	0		-1.1403572998046876	-0.3018165588378906	0		-0.6826080322265625	-2.59513525390625	0		1.92774169921875	-1.553197265625	0		3.491115966796875	-1.086209716796875	0		4.75950927734375	-0.6806881103515625	0		5.9191982421875	0.46714544677734376	0		-0.3099818725585938	5.88713330078125	0		
0.005858828067779541	0.004223482131958008	0		0.50069775390625	-2.547682861328125	0		-1.2249296875	-0.2978965759277344	0		-0.6872686157226563	-2.601431884765625	0		1.9347452392578126	-1.5796080322265624	0		3.485908203125	-1.0603861083984376	0		4.77604248046875	-0.6711678466796875	0		5.9141025390625	0.5223631591796875	0		-0.31075582885742187	5.8877841796875	0		
0.0021434550285339355	-1.4762000180780887E-5	0		0.5239734497070313	-2.55632421875	0		-1.1536473388671875	-0.30331265258789064	0		-0.6949880981445312	-2.609623291015625	0		1.92898779296875	-1.58877294921875	0		3.48573974609375	-1.095606201171875	0		4.79329296875	-0.6786240844726562	0		5.92198486328125	0.4889101257324219	0		-0.3455957946777344	5.88401513671875	0		
0.002465404987335205	-2.5701600313186645E-4	0		0.46837750244140625	-2.55369921875	0		-1.231341552734375	-0.3043792724609375	0		-0.6986812133789062	-2.61381591796875	0		1.94790625	-1.6172694091796875	0		3.50006396484375	-1.0970018310546874	0		4.7836435546875	-0.6776290893554687	0		5.917353515625	0.5096152648925781	0		-0.32447152709960936	5.8774453125	0		
0.002757086992263794	-4.3983000516891477E-4	0		0.5045152282714844	-2.56642578125	0		-1.2170321044921875	-0.3037930908203125	0		-0.680708984375	-2.63728125	0		1.9510047607421874	-1.6314705810546875	0		3.511031982421875	-1.119303955078125	0		4.7997890625	-0.687991943359375	0		5.92242236328125	0.4884934997558594	0		-0.3091222229003906	5.88602734375	0		
-0.02197013282775879	8.208230137825012E-4	0		0.478842529296875	-2.563145263671875	0		-1.206806640625	-0.30607913208007814	0		-0.6824603881835938	-2.63937841796875	0		1.9779957275390625	-1.649985595703125	0		3.51155712890625	-1.102395263671875	0		4.796234375	-0.676009521484375	0		5.91913671875	0.5040788269042968	0		-0.3429948120117188	5.881423828125	0		
0.0072837209701538085	0.0033170430660247802	0		0.5029883422851562	-2.568569091796875	0		-1.2065936279296876	-0.30614520263671874	0		-0.6883412475585937	-2.64634912109375	0		1.9768946533203124	-1.6710167236328124	0		3.539205078125	-1.139860107421875	0		4.82227783203125	-0.6874398803710937	0		5.92275390625	0.4883306579589844	0		-0.3077579650878906	5.884826171875	0		
-0.021594945907592773	7.650480270385742E-4	0		0.5000803833007812	-2.573517822265625	0		-1.20642919921875	-0.30614328002929686	0		-0.661375	-2.6597578125	0		1.9997220458984375	-1.6933587646484376	0		3.546492431640625	-1.1319581298828125	0		4.8196728515625	-0.6723836059570313	0		5.92287109375	0.48835498046875	0		-0.3066194763183594	5.883814453125	0		
0.0035007948875427244	-5.490890145301819E-4	0		0.5241104736328125	-2.578817138671875	0		-1.2063157958984374	-0.3060728759765625	0		-0.7043372192382813	-2.664030029296875	0		1.989604736328125	-1.7081392822265624	0		3.5503896484375	-1.145955810546875	0		4.8325390625	-0.68852099609375	0		5.92295263671875	0.48845465087890627	0		-0.34058285522460935	5.878404296875	0		
-0.021417211532592774	9.664779901504516E-4	0		0.4800898132324219	-2.583012451171875	0		-1.2572322998046874	-0.30415322875976564	0		-0.6645824584960938	-2.68350341796875	0		2.0390263671875	-1.74977685546875	0		3.54738671875	-1.1497943115234375	0		4.83569091796875	-0.6824590454101562	0		5.92299755859375	0.4886326293945312	0		-0.30640151977539065	5.884017578125	0		
0.007640693187713623	0.003720339059829712	0		0.5179265747070313	-2.593399169921875	0		-1.23611474609375	-0.29726730346679686	0		-0.69273876953125	-2.692869873046875	0		2.0369818115234377	-1.752564208984375	0		3.604849853515625	-1.1855091552734376	0		4.844638671875	-0.6864375	0		5.93034814453125	0.5214927978515626	0		-0.3223365173339844	5.88446337890625	0		
0.0076110148429870605	0.003983514070510864	0		0.5059771423339844	-2.58595849609375	0		-1.2320867919921874	-0.29305224609375	0		-0.6459874267578125	-2.70531787109375	0		2.0934970703125	-1.781193603515625	0		3.58523876953125	-1.156982177734375	0		4.85181494140625	-0.6723362426757813	0		5.93032763671875	0.5218349609375	0		-0.3223017578125	5.88473046875	0		
0.0034787659645080567	3.729040026664734E-4	0		0.500763916015625	-2.59256005859375	0		-1.225071044921875	-0.2868160095214844	0		-0.6884739990234375	-2.729334228515625	0		2.083172607421875	-1.7957391357421875	0		3.596521240234375	-1.1978822021484374	0		4.8617333984375	-0.6722276611328125	0		5.9252080078125	0.5103390502929688	0		-0.3374451599121094	5.87529345703125	0		
0.0033678979873657225	7.6357501745224E-4	0		0.5074116516113282	-2.605283203125	0		-1.2111573486328124	-0.28462112426757813	0		-0.6689528198242187	-2.7502373046875	0		2.0877255859375	-1.8154556884765625	0		3.592591552734375	-1.1844884033203125	0		4.86161181640625	-0.6719137573242188	0		5.9281142578125	0.5315031127929688	0		-0.30239053344726563	5.88015185546875	0		
0.003218641996383667	0.001215548038482666	0		0.48026553344726564	-2.601425537109375	0		-1.3110692138671876	-0.26761215209960937	0		-0.715268310546875	-2.7570654296875	0		2.0754072265625	-1.8238551025390626	0		3.6211103515625	-1.20454345703125	0		4.8672958984375	-0.6816388549804687	0		5.9321552734375	0.5111849670410156	0		-0.3014665222167969	5.87859375	0		
0.007092185020446777	0.005664703845977784	0		0.489887939453125	-2.610076416015625	0		-1.2442391357421876	-0.2661070251464844	0		-0.6659923095703125	-2.78830615234375	0		2.10993408203125	-1.8399207763671874	0		3.6211611328125	-1.187104248046875	0		4.8822626953125	-0.6704539184570313	0		5.93687109375	0.4891956787109375	0		-0.30530908203125	5.8941708984375	0		
0.0028042840957641603	0.002294533014297485	0		0.5145267333984375	-2.6149033203125	0		-1.3112940673828124	-0.2534819183349609	0		-0.6784761352539063	-2.800537841796875	0		2.1195751953125	-1.84555029296875	0		3.62749267578125	-1.213716552734375	0		4.87716162109375	-0.6609117431640625	0		5.93186083984375	0.5126363525390625	0		-0.2855080261230469	5.8884375	0		
